<svg aria-hidden="true" style="position: absolute; width: 0; height: 0; overflow: hidden;" version="1.1" xmlns="http://www.w3.org/2000/svg" xmlns:xlink="http://www.w3.org/1999/xlink">
  <defs>

    <symbol id="arrow-up2" viewBox="0 0 32 32">
        <path d="M27.414 12.586l-10-10c-0.781-0.781-2.047-0.781-2.828 0l-10 10c-0.781 0.781-0.781 2.047 0 2.828s2.047 0.781 2.828 0l6.586-6.586v19.172c0 1.105 0.895 2 2 2s2-0.895 2-2v-19.172l6.586 6.586c0.39 0.39 0.902 0.586 1.414 0.586s1.024-0.195 1.414-0.586c0.781-0.781 0.781-2.047 0-2.828z"></path>
    </symbol>
    
    <symbol id="icon-film" viewBox="0 0 32 32">
        <path fill="none" stroke="#818181" style="stroke: var(--color1, #818181)" stroke-linejoin="round" stroke-linecap="round" stroke-miterlimit="4" stroke-width="2.6667" d="M26.427 2.667h-20.853c-1.605 0-2.907 1.301-2.907 2.907v20.853c0 1.605 1.301 2.907 2.907 2.907h20.853c1.605 0 2.907-1.301 2.907-2.907v-20.853c0-1.605-1.301-2.907-2.907-2.907z"></path>
        <path fill="none" stroke="#818181" style="stroke: var(--color1, #818181)" stroke-linejoin="round" stroke-linecap="round" stroke-miterlimit="4" stroke-width="2.6667" d="M9.333 2.667v26.667"></path>
        <path fill="none" stroke="#818181" style="stroke: var(--color1, #818181)" stroke-linejoin="round" stroke-linecap="round" stroke-miterlimit="4" stroke-width="2.6667" d="M22.667 2.667v26.667"></path>
        <path fill="none" stroke="#818181" style="stroke: var(--color1, #818181)" stroke-linejoin="round" stroke-linecap="round" stroke-miterlimit="4" stroke-width="2.6667" d="M2.667 16h26.667"></path>
        <path fill="none" stroke="#818181" style="stroke: var(--color1, #818181)" stroke-linejoin="round" stroke-linecap="round" stroke-miterlimit="4" stroke-width="2.6667" d="M2.667 9.333h6.667"></path>
        <path fill="none" stroke="#818181" style="stroke: var(--color1, #818181)" stroke-linejoin="round" stroke-linecap="round" stroke-miterlimit="4" stroke-width="2.6667" d="M2.667 22.667h6.667"></path>
        <path fill="none" stroke="#818181" style="stroke: var(--color1, #818181)" stroke-linejoin="round" stroke-linecap="round" stroke-miterlimit="4" stroke-width="2.6667" d="M22.667 22.667h6.667"></path>
        <path fill="none" stroke="#818181" style="stroke: var(--color1, #818181)" stroke-linejoin="round" stroke-linecap="round" stroke-miterlimit="4" stroke-width="2.6667" d="M22.667 9.333h6.667"></path>
    </symbol>
    
    <symbol id="icon-search" viewBox="0 0 32 32">
        <path fill="none" stroke="#fff" style="stroke: var(--color2, #fff)" stroke-linejoin="round" stroke-linecap="round" stroke-miterlimit="4" stroke-width="2.6667" d="M14.667 25.333c5.891 0 10.667-4.776 10.667-10.667s-4.776-10.667-10.667-10.667c-5.891 0-10.667 4.776-10.667 10.667s4.776 10.667 10.667 10.667z"></path>
        <path fill="none" stroke="#fff" style="stroke: var(--color2, #fff)" stroke-linejoin="round" stroke-linecap="round" stroke-miterlimit="4" stroke-width="2.6667" d="M28 28l-5.8-5.8"></path>
    </symbol>
    
    <symbol id="twitter" viewBox="0 0 32 32">
        <path d="M31.918 5.988c-1.146 0.503-2.367 0.836-3.64 0.998 1.31-0.782 2.309-2.011 2.779-3.491-1.221 0.728-2.569 1.242-4.006 1.529-1.159-1.234-2.812-1.999-4.614-1.999-3.497 0-6.313 2.839-6.313 6.318 0 0.501 0.042 0.982 0.146 1.44-5.252-0.256-9.898-2.773-13.020-6.607-0.545 0.946-0.865 2.028-0.865 3.193 0 2.188 1.127 4.127 2.806 5.25-1.015-0.019-2.010-0.314-2.854-0.778 0 0.019 0 0.044 0 0.069 0 3.070 2.19 5.619 5.061 6.207-0.514 0.141-1.075 0.208-1.656 0.208-0.404 0-0.813-0.023-1.196-0.108 0.818 2.502 3.141 4.341 5.902 4.4-2.149 1.681-4.878 2.694-7.832 2.694-0.518 0-1.015-0.023-1.512-0.087 2.798 1.805 6.114 2.835 9.69 2.835 11.624 0 17.979-9.629 17.979-17.975 0-0.279-0.010-0.549-0.023-0.817 1.254-0.89 2.307-2.001 3.166-3.28z"></path>
    </symbol>
    
    <symbol id="facebook" viewBox="0 0 33 32">
         <path fill="#afb1b8" style="fill: var(--color1, #afb1b8)" d="M21.927 5.252h2.813v-4.899c-0.485-0.067-2.154-0.217-4.098-0.217-4.056 0-6.834 2.551-6.834 7.24v4.315h-4.475v5.477h4.475v13.781h5.487v-13.779h4.294l0.682-5.477h-4.977v-3.773c0.001-1.583 0.427-2.667 2.633-2.667z"></path>
    </symbol>
    
     <symbol id="instagram" viewBox="0 0 32 32">
        <path fill="#afb1b8" style="fill: var(--color1, #afb1b8)" d="M31.604 9.195c-0.072-1.637-0.337-2.763-0.716-3.738-0.391-1.035-0.993-1.962-1.782-2.733-0.771-0.782-1.704-1.391-2.727-1.776-0.981-0.379-2.101-0.644-3.738-0.716-1.649-0.078-2.173-0.096-6.356-0.096s-4.707 0.018-6.35 0.090c-1.637 0.072-2.763 0.337-3.738 0.716-1.035 0.391-1.962 0.993-2.733 1.782-0.782 0.771-1.39 1.703-1.776 2.727-0.379 0.981-0.644 2.101-0.716 3.738-0.078 1.649-0.096 2.173-0.096 6.356s0.018 4.707 0.090 6.35c0.072 1.637 0.337 2.763 0.716 3.738 0.391 1.035 0.999 1.962 1.782 2.733 0.771 0.782 1.703 1.39 2.727 1.776 0.981 0.379 2.101 0.644 3.738 0.716 1.643 0.072 2.167 0.090 6.35 0.090s4.707-0.018 6.35-0.090c1.637-0.072 2.763-0.337 3.738-0.716 2.071-0.801 3.708-2.438 4.508-4.508 0.379-0.981 0.644-2.101 0.716-3.738 0.072-1.643 0.090-2.167 0.090-6.35s-0.006-4.707-0.078-6.35zM28.83 21.775c-0.066 1.505-0.319 2.317-0.53 2.859-0.518 1.342-1.583 2.408-2.925 2.925-0.542 0.211-1.36 0.463-2.859 0.529-1.625 0.072-2.113 0.090-6.224 0.090s-4.605-0.018-6.224-0.090c-1.505-0.066-2.317-0.319-2.859-0.529-0.668-0.247-1.276-0.638-1.77-1.15-0.512-0.5-0.903-1.102-1.15-1.77-0.211-0.542-0.463-1.36-0.53-2.859-0.072-1.625-0.090-2.113-0.090-6.224s0.018-4.605 0.090-6.224c0.066-1.505 0.319-2.317 0.53-2.859 0.247-0.668 0.638-1.276 1.156-1.77 0.499-0.512 1.101-0.903 1.77-1.149 0.542-0.211 1.36-0.463 2.859-0.53 1.625-0.072 2.113-0.090 6.224-0.090 4.117 0 4.605 0.018 6.224 0.090 1.505 0.066 2.317 0.319 2.859 0.53 0.668 0.247 1.276 0.638 1.769 1.149 0.512 0.5 0.903 1.102 1.15 1.77 0.211 0.542 0.463 1.36 0.53 2.859 0.072 1.625 0.090 2.113 0.090 6.224s-0.018 4.593-0.090 6.218z"></path>
        <path fill="#afb1b8" style="fill: var(--color1, #afb1b8)" d="M16.286 7.63c-4.37 0-7.915 3.545-7.915 7.915s3.545 7.915 7.915 7.915c4.37 0 7.915-3.545 7.915-7.915s-3.545-7.915-7.915-7.915zM16.286 20.679c-2.835 0-5.134-2.299-5.134-5.134s2.3-5.134 5.134-5.134c2.835 0 5.134 2.299 5.134 5.134s-2.299 5.134-5.134 5.134z"></path>
        <path fill="#afb1b8" style="fill: var(--color1, #afb1b8)" d="M26.362 7.317c0 1.020-0.828 1.848-1.848 1.848s-1.848-0.827-1.848-1.848c0-1.021 0.827-1.848 1.848-1.848s1.848 0.827 1.848 1.848z"></path>
    </symbol>
    
    <symbol id="linkedin" viewBox="0 0 32 32">
      <path fill="#afb1b8" style="fill: var(--color1, #afb1b8)" d="M31.023 30.948v-0.001h0.008v-11.3c0-5.528-1.19-9.787-7.653-9.787-3.107 0-5.192 1.705-6.043 3.321h-0.090v-2.805h-6.128v20.571h6.381v-10.186c0-2.682 0.508-5.275 3.83-5.275 3.272 0 3.321 3.061 3.321 5.447v10.015h6.374z"></path>
      <path fill="#afb1b8" style="fill: var(--color1, #afb1b8)" d="M0.727 10.377h6.388v20.571h-6.388v-20.571z"></path>
      <path fill="#afb1b8" style="fill: var(--color1, #afb1b8)" d="M3.919 0.136c-2.043 0-3.7 1.657-3.7 3.7s1.657 3.735 3.7 3.735c2.043 0 3.7-1.692 3.7-3.735-0.001-2.043-1.659-3.7-3.7-3.7v0z"></path>
    </symbol>
    
    <symbol id="heart" viewBox="0 0 ">
      <path d="M7 12.88L6.02 11.9C2.38 8.68 0 6.51 0 3.85C0 1.68 1.68 0 3.85 0C5.04 0 6.23 0.56 7 1.47C7.77 0.56 8.96 0 10.15 0C12.32 0 14 1.68 14 3.85C14 6.51 11.62 8.68 7.98 11.9L7 12.88Z" fill="#FF6B08"></path>
    </symbol>
    <symbol id="team-telegram" viewBox="0 0 32 32">
      <path d="M16 0c-8.838 0-16 7.162-16 16s7.162 16 16 16 16-7.163 16-16-7.163-16-16-16zM23.863 10.969l-2.625 12.369c-0.181 0.881-0.712 1.087-1.45 0.681l-4-2.956-1.919 1.869c-0.225 0.219-0.4 0.4-0.8 0.4-0.519 0-0.431-0.194-0.606-0.688l-1.363-4.475-3.956-1.231c-0.856-0.262-0.862-0.85 0.194-1.269l15.412-5.95c0.7-0.319 1.381 0.169 1.113 1.25z"></path>
    </symbol>
    <symbol id="team-github" viewBox="0 0 32 32">
      <path d="M16 0.395c-8.836 0-16 7.163-16 16 0 7.069 4.585 13.067 10.942 15.182 0.8 0.148 1.094-0.347 1.094-0.77 0-0.381-0.015-1.642-0.022-2.979-4.452 0.968-5.391-1.888-5.391-1.888-0.728-1.849-1.776-2.341-1.776-2.341-1.452-0.993 0.11-0.973 0.11-0.973 1.606 0.113 2.452 1.649 2.452 1.649 1.427 2.446 3.743 1.739 4.656 1.33 0.143-1.034 0.558-1.74 1.016-2.14-3.554-0.404-7.29-1.777-7.29-7.907 0-1.747 0.625-3.174 1.649-4.295-0.166-0.403-0.714-2.030 0.155-4.234 0 0 1.344-0.43 4.401 1.64 1.276-0.355 2.645-0.532 4.005-0.539 1.359 0.006 2.729 0.184 4.008 0.539 3.054-2.070 4.395-1.64 4.395-1.64 0.871 2.204 0.323 3.831 0.157 4.234 1.026 1.12 1.647 2.548 1.647 4.295 0 6.145-3.743 7.498-7.306 7.895 0.574 0.497 1.085 1.47 1.085 2.963 0 2.141-0.019 3.864-0.019 4.391 0 0.426 0.288 0.925 1.099 0.768 6.354-2.118 10.933-8.113 10.933-15.18 0-8.837-7.164-16-16-16z"></path>
    </symbol>
    <symbol id="team-linkedin" viewBox="0 0 32 32">
      <path d="M29 0h-26c-1.65 0-3 1.35-3 3v26c0 1.65 1.35 3 3 3h26c1.65 0 3-1.35 3-3v-26c0-1.65-1.35-3-3-3zM12 26h-4v-14h4v14zM10 10c-1.106 0-2-0.894-2-2s0.894-2 2-2c1.106 0 2 0.894 2 2s-0.894 2-2 2zM26 26h-4v-8c0-1.106-0.894-2-2-2s-2 0.894-2 2v8h-4v-14h4v2.481c0.825-1.131 2.087-2.481 3.5-2.481 2.488 0 4.5 2.238 4.5 5v9z"></path>
    </symbol>
    <symbol id="close-btn" viewBox="0 0 32 32">
      <path d="M31.708 25.708c-0-0-0-0-0-0l-9.708-9.708 9.708-9.708c0-0 0-0 0-0 0.105-0.105 0.18-0.227 0.229-0.357 0.133-0.356 0.057-0.771-0.229-1.057l-4.586-4.586c-0.286-0.286-0.702-0.361-1.057-0.229-0.13 0.048-0.252 0.124-0.357 0.228 0 0-0 0-0 0l-9.708 9.708-9.708-9.708c-0-0-0-0-0-0-0.105-0.104-0.227-0.18-0.357-0.228-0.356-0.133-0.771-0.057-1.057 0.229l-4.586 4.586c-0.286 0.286-0.361 0.702-0.229 1.057 0.049 0.13 0.124 0.252 0.229 0.357 0 0 0 0 0 0l9.708 9.708-9.708 9.708c-0 0-0 0-0 0-0.104 0.105-0.18 0.227-0.229 0.357-0.133 0.355-0.057 0.771 0.229 1.057l4.586 4.586c0.286 0.286 0.702 0.361 1.057 0.229 0.13-0.049 0.252-0.124 0.357-0.229 0-0 0-0 0-0l9.708-9.708 9.708 9.708c0 0 0 0 0 0 0.105 0.105 0.227 0.18 0.357 0.229 0.356 0.133 0.771 0.057 1.057-0.229l4.586-4.586c0.286-0.286 0.362-0.702 0.229-1.057-0.049-0.13-0.124-0.252-0.229-0.357z"></path>
    </symbol>

    <symbol id="moon" viewBox="0 0 32 32">
      <path fill="currentColor" d="M17.701 32a15.97 15.97 0 0012.429-5.925c.442-.544-.04-1.339-.723-1.209-7.763 1.478-14.891-4.474-14.891-12.31 0-4.514 2.416-8.665 6.344-10.9.605-.345.453-1.262-.235-1.389-.879-.17-1.89-.267-2.923-.268-8.832 0-16 7.157-16 16 0 8.832 7.157 16 16 16z"/>
    </symbol>
    <symbol id="sun" viewBox="0 0 32 32">
      <path fill="currentColor" d="M16 10c-3.306 0-6 2.694-6 6s2.694 6 6 6 6-2.694 6-6-2.694-6-6-6zm15.4 5.031l-5.919-2.956L27.575 5.8c.281-.85-.525-1.656-1.369-1.369l-6.275 2.094L16.969.6c-.4-.8-1.537-.8-1.938 0l-2.956 5.919-6.281-2.094c-.85-.281-1.656.525-1.369 1.369l2.094 6.275L.6 15.032c-.8.4-.8 1.538 0 1.938l5.919 2.956-2.094 6.281c-.281.85.525 1.656 1.369 1.369l6.275-2.094 2.956 5.919c.4.8 1.538.8 1.938 0l2.956-5.919 6.275 2.094c.85.281 1.656-.525 1.369-1.369l-2.094-6.275 5.919-2.956c.813-.406.813-1.544.012-1.944zm-9.744 6.625c-3.119 3.119-8.194 3.119-11.313 0s-3.119-8.194 0-11.313c3.119-3.119 8.194-3.119 11.313 0s3.119 8.194 0 11.313z"/>
    </symbol>

  </defs>
</svg>
